<?xml version="1.0" encoding="UTF-8"?>
<svg class="svg" style="enable-background:new 0 0 187.1 96.4" version="1.1" viewBox="0 0 187.1 96.4" xml:space="preserve" xmlns="http://www.w3.org/2000/svg"><title>ICM Partners logo</title><g class="letter-i" fill="#004b8c"><rect class="st0" x="1" y="1.9" width="15.2" height="69.3"/></g><g class="letter-m" fill="#7cbde8"><polygon class="st0" points="185.7 71.2 185.7 1.9 169.2 1.9 151 31.2 132.8 1.9 116.4 1.9 116.4 71.2 131.3 71.2 131.3 26.2 150.6 55.5 151 55.5 170.5 25.9 170.5 71.2" /></g><g class="letter-c" fill="#007dc4"><path class="st0" d="m80.7 56.1c-3.1 1.5-6.6 2.3-10 2.2-5.5 0.1-10.8-2.3-14.5-6.4-1.8-2-3.2-4.4-4.1-6.9-1-2.7-1.5-5.5-1.5-8.4v-0.2c0-2.9 0.5-5.7 1.5-8.4 0.9-2.5 2.4-4.9 4.2-6.9s4-3.6 6.4-4.7c2.5-1.1 5.3-1.7 8.1-1.7 3.3-0.1 6.5 0.7 9.5 2.1 3 1.5 5.8 3.5 8.3 5.7l9.4-11.1c-1.6-1.6-3.3-3.1-5.1-4.4-1.9-1.3-3.9-2.5-6-3.4-2.3-1-4.8-1.7-7.3-2.2-2.9-0.6-5.9-0.8-8.9-0.8-5-0.1-10 0.9-14.7 2.8-4.3 1.8-8.1 4.4-11.4 7.7-3.2 3.3-5.7 7.2-7.4 11.4-1.8 4.4-2.7 9.1-2.7 13.9v0.2c0 4.8 0.9 9.5 2.7 14 1.7 4.2 4.2 8.1 7.4 11.3s7.1 5.8 11.3 7.6c4.5 1.9 9.3 2.8 14.2 2.8 3.1 0 6.1-0.3 9.1-0.8 5-1 9.7-3.2 13.8-6.4 2-1.6 3.8-3.3 5.5-5.1l-9.7-9.8c-2.4 2.3-5.2 4.3-8.1 5.9z" style="--darkreader-inline-fill:inherit;fill:inherit" data-darkreader-inline-fill=""/></g><g class="partners" fill="#007dc4"><path class="st0" d="m0.7 95.9v-11.2h4.4c0.6 0 1.2 0.1 1.8 0.3 0.5 0.2 1 0.4 1.4 0.8 0.4 0.3 0.7 0.7 0.9 1.2s0.3 1 0.3 1.6c0 0.7-0.1 1.2-0.4 1.7-0.2 0.5-0.6 0.9-1 1.2s-0.9 0.6-1.4 0.7c-0.5 0.2-1.1 0.2-1.7 0.2h-1.9v3.4h-2.4zm4.3-5.6c0.7 0 1.2-0.2 1.5-0.5 0.4-0.3 0.5-0.7 0.5-1.2 0-0.6-0.2-1-0.5-1.3-0.3-0.2-0.8-0.3-1.5-0.3h-1.9v3.3h1.9z"/><path class="st0" d="m34.4 95.9-1.1-2.6h-4.7l-1.1 2.6h-2.5l5-11.2h2.1l4.9 11.2h-2.6zm-1.9-4.7-1.5-3.4-1.4 3.4h2.9z"/><path class="st0" d="m59.7 95.9-2.6-3.7h-2v3.7h-2.4v-11.2h5c0.7 0 1.3 0.1 1.9 0.3 0.5 0.2 1 0.5 1.4 0.8 0.3 0.3 0.5 0.7 0.7 1.1s0.2 0.9 0.2 1.4-0.1 0.9-0.2 1.3-0.3 0.7-0.6 1c-0.2 0.3-0.5 0.5-0.9 0.7-0.2 0.1-0.5 0.3-0.8 0.4l3 4.1h-2.7zm-2.1-5.9c0.6 0 1.1-0.1 1.4-0.4s0.5-0.6 0.5-1.1-0.2-0.9-0.5-1.1c-0.3-0.3-0.8-0.4-1.5-0.4h-2.5v3h2.6z"/><polygon class="st0" points="81.2 95.9 81.2 87 77.8 87 77.8 84.7 87 84.7 87 87 83.6 87 83.6 95.9"/><polygon class="st0" points="110.7 95.9 105.2 88.8 105.2 95.9 102.9 95.9 102.9 84.7 105 84.7 110.3 91.6 110.3 84.7 112.6 84.7 112.6 95.9"/><polygon class="st0" points="128.5 95.9 128.5 84.7 136.9 84.7 136.9 86.9 130.9 86.9 130.9 89.2 136.2 89.2 136.2 91.4 130.9 91.4 130.9 93.7 137 93.7 137 95.9"/><path class="st0" d="m159.8 95.9-2.6-3.7h-2v3.7h-2.4v-11.2h5c0.7 0 1.3 0.1 1.9 0.3 0.5 0.2 1 0.5 1.4 0.8 0.3 0.3 0.5 0.7 0.7 1.1s0.2 0.9 0.2 1.4-0.1 0.9-0.2 1.3-0.3 0.7-0.6 1c-0.2 0.3-0.5 0.5-0.9 0.7-0.2 0.1-0.5 0.3-0.8 0.4l3 4.1h-2.7zm-2.1-5.9c0.6 0 1.1-0.1 1.4-0.4s0.5-0.6 0.5-1.1-0.2-0.9-0.5-1.1c-0.3-0.3-0.8-0.4-1.5-0.4h-2.5v3h2.6z"/><path class="st0" d="m182.2 96c-0.9 0-1.7-0.1-2.4-0.4-0.8-0.3-1.5-0.7-2.2-1.3l-0.2-0.2 1.4-1.7 0.2 0.2c0.5 0.4 1 0.8 1.5 1s1.1 0.3 1.7 0.3c0.5 0 0.9-0.1 1.2-0.3s0.4-0.4 0.4-0.8c0-0.2 0-0.3-0.1-0.4 0-0.1-0.1-0.2-0.3-0.3s-0.4-0.2-0.7-0.3-0.7-0.2-1.2-0.3c-0.6-0.1-1.1-0.3-1.5-0.5-0.5-0.2-0.9-0.4-1.2-0.6-0.3-0.3-0.6-0.6-0.8-1s-0.3-0.8-0.3-1.4c0-0.5 0.1-1 0.3-1.4s0.5-0.8 0.8-1.1 0.8-0.5 1.2-0.7c0.5-0.2 1-0.2 1.5-0.2 0.8 0 1.5 0.1 2.2 0.4 0.6 0.2 1.3 0.6 1.8 1l0.2 0.1-1.3 1.8-0.2-0.1c-0.5-0.3-0.9-0.6-1.4-0.8-0.4-0.2-0.9-0.3-1.4-0.3s-0.9 0.1-1.1 0.3-0.4 0.4-0.4 0.7c0 0.2 0 0.3 0.1 0.5 0 0.1 0.2 0.2 0.3 0.3 0.2 0.1 0.4 0.2 0.7 0.3s0.7 0.2 1.2 0.3c0.6 0.1 1.1 0.3 1.5 0.5 0.5 0.2 0.8 0.4 1.1 0.7s0.5 0.6 0.7 1 0.2 0.8 0.2 1.2c0 0.6-0.1 1-0.3 1.5-0.2 0.4-0.5 0.8-0.9 1.1s-0.8 0.5-1.3 0.7c0.1 0.2-0.4 0.2-1 0.2z"/></g></svg>
